<?xml version="1.0" encoding="utf-8"?>
<!-- Generator: Adobe Illustrator 18.0.0, SVG Export Plug-In . SVG Version: 6.00 Build 0)  -->
<!DOCTYPE svg PUBLIC "-//W3C//DTD SVG 1.1//EN" "http://www.w3.org/Graphics/SVG/1.1/DTD/svg11.dtd">
<svg version="1.1" id="Слой_2" xmlns="http://www.w3.org/2000/svg" xmlns:xlink="http://www.w3.org/1999/xlink" x="0px" y="0px"
	 viewBox="259 51 1071 1195" enable-background="new 259 51 1071 1195" xml:space="preserve">
<path fill="#000000"    d="M334,349.7c0.3-11.6,0.4-21.3,4.3-31.5
	c4.2-11,12.1-18.5,18.4-28.1c-12.2-0.5-24.8,21-29.6,30c-4.5,8.4-14.2,26.2-12.5,35.8c0-8.8,4.4-29.7,7.7-37.8
	c-3.4,3.7-9.9,21.5-12.3,25.7c1.1-42.8,33.1-71.4,67.5-90c-14.9,0.4-26.8,0.6-39,10.2c-9.9,7.8-16.1,18.8-23.5,28.6
	c1-14.4,21.9-38.8,34.4-46c11.8-6.7,35.4-13,49.4-10.8c-9.6-7.3-28.2,0.5-29.7-17.6c6.8,7.6,30.8,17,40.7,14.2
	c-13.6-14.6,0.9-44.2,19.6-46.2c-12.7,13.3-1.9,47.1,14.9,25.1c6-7.9,6.8-16.9,12.1-25.4c3.9-6.3,8.8-14,13.9-19.5
	c11.7-12.7,32.6-21,48.2-25.7c17-5,37.3-9.2,55.4-8.9c-13.6-17.1-35.8-7.8-50.2,1.3c13.3-16.1,35.1-25.1,55.3-27.1
	c22.3-2.1,39.2,12.6,58.7,20.5c-15-25.7,14.9-25.7,29.7-40.3c-7.2,7.4-32.5,19.3-19.4,31.7c4.9-16.6,43.1-25.6,57.8-24.1
	c13.3,1.4,15.7,9.3,19.6-7.6c2.4-10.2,10.8-19.3,21.3-22c-4.4,8.8-12.3,22.4-3,30.6c-1.3-17.3,35-26.3,46.2-20.5
	c-19.3-1.5-24.9,18.6-4,18c5.2-0.1,18.1-0.3,22.3-3.3c5-3.5,7.1-15.2,6.7-20.8c7.1,5,9.9,14.5,16,19.3c0.9-3.3,1.5-6.3,0.9-9.1
	c3.3,3.3,4.4,7.6,8.1,9.6c3.1,1.8,11,2,14.2,2.3c11.6,0.9,22,1.3,32.9,5.3c12.2,4.5,36.4,22.3,40.2,36c-7.8-8.1-13-9.6-22.9-12.3
	c4.3,5.5,14.1,18,20.7,21c6.7,3,18.8-2.3,25.7-2.8c8.6-0.6,52.6-10.2,98.5,11.7c14.1,6.7,24.2,21.2,32.9,34.6
	c2.6-16.7,37.5,14.9,42.1,18.9c8.1,7.2,25.1,37.5,31.7,39c4.4,1,9.9-2.6,15.1-1.3c3.5,0.9,8.6,4.3,11,6.8
	c6.4,6.9,10.6,18.6,13.6,27.2c2.9,8.7,5.5,16.2,14.7,21c9.2,4.9,22.3,4.9,32.7,4.9c-6.4,2.8-14.4,5-21.7,4.9
	c9.3,4.3,20.9,10.2,31.5,6.3c-6.7,6.5-11.2,12.6-21.2,11.7c3,6.2,12.3,10.8,17.6,16.6c15.1,16.5,17.9,54.3,17,70.1
	c-0.1-1.4,43.6,31.2,50.1,79.8c7.3,53.8-2.3,52.6-0.4,55.4c5.7,8.9,6.8,13,6.8,23.5c0,6.4-1.1,19.8-8.1,22.4
	c3.3-11.2,1.5-25.7-6.4-35.5c0.9,11.1-4.5,19.9-10.2,28.5c-6.5,10.2-0.5,9.9,6,18.9c11.1,15.4,19.4,42.9,10.2,60.1
	c-2-5-2.5-10.5-4.7-15.5c0.1,8.1-0.6,16.5-8.7,20.4c-0.4-0.8-13.7,12.2-21,17.3c-3.5,2.5-7.8,18.5-12.2,24.8
	c9.7,13.2,31.7-9.3,24.2-20.5c6.3,8.3,8.9,12.6,2.4,22.4c-4.7,7.1-11.6,13.3-18.8,17c4.4,2,12.7-0.3,16.2-4.3
	c-6.3,19.5-28.5,28.2-43.3,38.7c14.1,10.5,13.7,35.4,8.4,49.7c-5.9,16.2-11.8,31.1-22.3,45.5c1.9-11.1,2.3-19.6,0.8-31.7
	c-2.6,4.2-4.2,16.6-5.8,22.4c-2,7.2-3.7,13-7.8,19.6c-9.9,16.1-18.3,21.7-35.3,30.3c8.2-8.3,18.1-16.2,21.5-27.5
	c-5.5,5.7-11.2,9.7-17.4,14.1c-7.7,5.4-23.7,14.6-23,15c2.3,21.7-16.2,44.6-38.4,43.2c6.3-4.9,10.1-8.2,13.2-15.7
	c-12.1,12.6-21.4,15.6-38.8,16.1c11.8-6.5,31.1-19.6,29.7-35.8c-6.2,10.7-15,20-26.1,26.2c-7.7,4.4-35.6,14.6-41.8,5.3
	c8.2-4.4,46.6-22.8,39.5-35c-12.5,21.5-47.7,36.1-68,19.6c-0.9,41.8,13.1,51.4,19.8,58.4c34.9,36.6,56.9,85.9,76.2,107.5
	c7.6,8.6,41.3,50.9,41.2,49.7L573,1240.1c20.7-31.6,59.3-48.2,80.3-80c10.2-15.4,15.4-39.4,1.1-48c-15.2-9.2-48.5,1.4-64.8,2.6
	c-12.5,1-62.6,6.8-102.2-12.5c-8.9-4.4-15.6-14.9-24.4-17.9c-11.5-3.9-41.8-1.3-66.5-18c-55.5-37.8-23.5-73.3-21-80.1
	c3.7-9.9,0.4-15.7,1.3-25.3c-10.8-2.4-20.4-13.5-21.4-23.2c-0.8-7.8-0.5-18.4,5.4-23.5c8.2-7.1,11.7-1.1,20.7-3.7
	c-2.4-4.7-8.4-16.6-8.4-16.6s-16.2-4.3-21.9-5.3c-10.8-2-26.4-6.3-33.2-15c-9.3-11.8-0.3-21.5,3.8-33.2c4.3-12.6,3.3-23,2.4-36.4
	c-14-4.2-29.3-3.5-42.3-11.8c-14.1-9.1-17.3-31.4-11.6-47.2c8.7-24.7,48.1-55.4,69.3-84.5c18.6-25.7,17.6-46,10.6-66.5
	c-7.1-20.5-16.6-39.2-20-60.3c-7.9-49.2-5.9-98.5,4.9-146.4c4.9-22,14.4-40.9,26.1-60.1c5-8.3,10.8-16.9,18-24.1
	c6.8-6.8,16.6-10.6,22.3-17C400.5,286.9,362.3,281.8,334,349.7z"/>
</svg>
